PathFileType	4	(X/Y/Z)	RBDS026\RBDS026runT25.trc
DataRate	CameraRate	NumFrames	NumMarkers	Units	OrigDataRate	OrigDataStartFrame	OrigNumFrames
150.000000	150.000000	6	33	mm	150.000000	2250	4500
Frame#	Time	L.ASIS			L.Heel.Bottom			L.Heel.Lateral			L.Heel.Top			L.Iliac.Crest			L.MT1			L.MT5			L.PSIS			L.Shank.Bottom.Lateral			L.Shank.Bottom.Medial			L.Shank.Top.Lateral			L.Shank.Top.Medial			L.Thigh.Bottom.Lateral			L.Thigh.Bottom.Medial			L.Thigh.Top.Lateral			L.Thigh.Top.Medial			R.ASIS			R.ASY			R.Heel.Bottom			R.Heel.Lateral			R.Heel.Top			R.Iliac.Crest			R.MT1			R.MT5			R.PSIS			R.Shank.Bottom.Lateral			R.Shank.Bottom.Medial			R.Shank.Top.Lateral			R.Shank.Top.Medial			R.Thigh.Bottom.Lateral			R.Thigh.Bottom.Medial			R.Thigh.Top.Lateral			R.Thigh.Top.Medial			
		X1	Y1	Z1	X2	Y2	Z2	X3	Y3	Z3	X4	Y4	Z4	X5	Y5	Z5	X6	Y6	Z6	X7	Y7	Z7	X8	Y8	Z8	X9	Y9	Z9	X10	Y10	Z10	X11	Y11	Z11	X12	Y12	Z12	X13	Y13	Z13	X14	Y14	Z14	X15	Y15	Z15	X16	Y16	Z16	X17	Y17	Z17	X18	Y18	Z18	X19	Y19	Z19	X20	Y20	Z20	X21	Y21	Z21	X22	Y22	Z22	X23	Y23	Z23	X24	Y24	Z24	X25	Y25	Z25	X26	Y26	Z26	X27	Y27	Z27	X28	Y28	Z28	X29	Y29	Z29	X30	Y30	Z30	X31	Y31	Z31	X32	Y32	Z32	X33	Y33	Z33	

2251	15	2155.828907698449	1004.285373484663	896.3554335496648	1756.672126964922	53.65596242931368	1000.263413313795	1785.352716998815	71.26354082449717	948.4300975819471	1771.611796008942	99.58657266677156	999.0696948881024	2078.649126137472	1076.434076509189	856.6854012532557	1983.143158392251	46.51159998882301	1001.599753219505	1926.692425574102	42.83855791672101	901.4709293091826	1985.221285773272	1056.348688807484	977.9475001514585	1882.716564280993	170.9011694227549	921.5547394408018	1844.956742877808	197.568638944624	943.0927274417324	1918.406409764473	237.5332736916309	892.6753173137157	1879.930167429291	268.4044292560475	912.3371879168009	2055.100249712207	602.4771498877531	854.4291292241761	1995.945060307507	604.0570885268622	896.5834372740362	2045.752798130462	710.8616482093266	838.1505703928318	1992.169796131797	712.3969876903834	882.8461485285642	2153.750163516552	1010.603751146675	1140.193004731545	1961.48457128588	165.3226718708292	1135.703685703446	1796.915152366932	249.0440214625882	1086.998331336906	1827.46817607155	250.3439669015761	1136.694015003515	1834.939869107965	275.1720325771224	1085.702050997586	2086.477039878834	1076.576677243821	1180.417791916118	1964.180951951299	99.98204397220032	1098.223110882446	1925.905232194739	134.0379804398495	1198.235178369233	1985.653177360847	1053.190811773826	1076.066438172679	1948.507603155301	294.7423956457155	1160.925931670023	1920.700319970387	328.5748892297105	1126.993421276353	2000.054082140357	356.1891191787803	1177.089813679193	1972.472936643818	387.4779662588249	1143.370827247685	2213.035375132808	607.8830255594265	1197.80937781583	2150.833455993331	586.5602241766206	1169.323759167361	2173.175642567158	710.2735723095332	1209.970350891518	2112.03910850151	688.3162185809962	1187.810166670491	
2252	15.00666666666667	2156.044230647241	1006.642507887617	896.363551650472	1741.304569427762	59.78683794284661	1000.198488288503	1770.430395188223	76.37099088294298	948.3281850812966	1757.223399759029	105.3109570072818	998.740836536321	2080.829759338709	1080.106636215337	856.9790646102981	1966.611049599627	46.37707293911338	1002.024713116673	1910.277271151633	43.62788930246609	901.6721392848178	1986.25193576096	1060.768526715435	977.8029796191441	1868.226777394395	175.2501395920611	921.5416475774034	1830.787128007134	202.0253735663771	943.5241919953414	1904.177850412751	241.8306703256418	892.8494520952842	1865.967324314012	272.783886581387	912.8689000323488	2045.73767517876	606.2354136199673	855.4882332866629	1986.994555011965	609.6189060272814	898.0830439799684	2039.556478479168	714.8542127192276	839.297159028279	1986.27202804271	718.0267356647593	884.3020768483032	2154.796534739605	1015.435573077032	1139.765585595885	1982.937462850749	159.8586755169687	1133.636898940931	1813.947249144715	234.6420953200384	1085.422228604444	1844.506636758756	237.4422093640752	1135.088293938685	1850.557179042964	262.8055803912179	1084.210802911501	2087.528114518303	1082.187542090814	1180.411496038188	1989.320328872428	95.03542991021695	1095.757765367945	1949.254370872721	126.4027696138731	1196.017060231414	1986.687245737593	1058.370208196546	1076.126325961983	1963.398379127664	287.9832089863229	1159.354193347773	1933.877924937594	320.5907329579806	1125.65871915281	2011.998432186644	351.7418252736277	1175.812604120825	1982.706938847061	381.8454028337924	1142.399775201892	2217.83931141628	614.8455357447122	1197.462268915092	2155.592786041419	592.6715430709198	1169.987089732998	2177.082965450757	716.7273319985178	1209.986375081902	2115.883939749579	694.046549705441	1188.748901228584	
2253	15.01333333333333	2156.472541063854	1009.061515269959	896.5611540153823	1726.419046683169	66.69862651457737	1000.20915676355	1756.023821215988	82.11718255165788	948.2965819369035	1743.476660586632	111.7254066877191	998.4827176832927	2083.170826037492	1083.917300201724	857.2322704505989	1950.24682732681	46.17418381891412	1002.398771147204	1894.074985932011	44.5531278606629	901.8291683290676	1987.44158740724	1065.311486262714	977.619542862497	1854.220150175532	180.0838548538267	921.5032047991888	1817.157509603921	206.9497450660111	944.0193964304049	1890.403430377302	246.6215023112726	892.9875424397592	1852.508500043621	277.6285809228616	913.464997199238	2036.872819354998	610.3880556002258	856.3944134653158	1978.53212567039	615.498015305929	899.3446922919777	2033.756868663872	719.1659400611219	840.3151985648065	1980.75983909132	723.9001899302377	885.5498789138892	2155.932178438391	1020.523301981782	1139.456051459644	2004.766902282876	154.424029820289	1131.55908876955	1831.888066732584	219.940392661334	1083.652705494152	1862.312168425793	224.2671239084119	1133.336614250102	1866.941618567296	250.0859848516655	1082.576565359918	2088.689972813086	1088.155730681916	1180.459278462278	2014.889169008885	90.31718254042799	1093.296503190694	1973.069445367058	118.859191605021	1193.756766326436	1987.855339428266	1063.740614586525	1076.151722617797	1978.594529412415	280.9916156216081	1157.725032194663	1947.414158956983	312.2232470389624	1124.198077826221	2023.993558856708	347.0017320780333	1174.493893350208	1993.052623344923	375.789459803401	1141.309991555416	2222.054638751968	621.7201383406896	1197.129914184551	2159.713582471614	598.8080548651039	1170.717024550358	2180.609032313722	723.1791943808686	1209.965991394502	2119.323649655581	699.8950659091257	1189.650117314707	
2254	15.02	2157.118263077475	1011.554445174161	896.9498881837574	1712.071121415953	74.3402967325159	1000.274596810224	1742.175859406722	88.45527368363652	948.3166739737219	1730.424155990885	118.7689293829445	998.2807652351827	2085.645963951887	1087.819199930856	857.4534481191495	1934.076596003967	45.90948141398749	1002.696887509477	1878.123074146719	45.62483228220361	901.9215530328738	1988.768825935774	1069.918232957886	977.4234164977536	1840.748318395669	185.3609954475397	921.4211862683271	1804.122470016334	212.2970918917654	944.560101132863	1877.132605232855	251.8655924089534	893.0715306274602	1839.613719152215	282.8987668671674	914.1167468690151	2028.5674437628	614.8812245309903	857.1152913197889	1970.607275493411	621.6259823638436	900.3331637448219	2028.381938412117	723.745285709805	841.1715234216405	1975.652627867368	729.9541448575008	886.5589827124086	2157.129987296832	1025.81765782505	1139.266428269465	2026.965377366193	149.0996641014312	1129.495296417014	1850.74539259423	205.0550158576985	1081.747201877695	1880.888737155669	210.9169230759165	1131.489344161511	1884.098286472193	237.1239676149843	1080.845012636339	2089.922600171648	1094.359539283123	1180.550630002007	2040.8457684593	85.90991987047187	1090.87468554578	1997.342480332257	111.4971320527216	1191.491207934459	1989.13707800587	1069.222535896228	1076.157006468097	1994.10794960661	273.8229556592818	1156.074135209375	1961.343118144791	303.5406191252464	1122.647389203369	2036.057580221895	341.985921579319	1173.16449998897	2003.558076872639	369.344419736906	1140.128245276971	2225.643619580711	628.3893277470272	1196.798464258887	2163.156589977908	604.8666208902478	1171.477006947267	2183.714882187936	729.5236700614083	1209.888434137197	2122.321357557536	705.7654791792058	1190.472289990089	
2255	15.02666666666667	2157.977014736265	1014.140242481166	897.5175036325008	1698.308947398588	82.64755261966857	1000.366550951324	1728.918188137492	95.32774692725262	948.3625246958559	1718.104003213063	126.3677961340481	998.1112237041033	2088.225840987059	1091.776211422766	857.6635443865462	1918.125039981163	45.60238371072987	1002.904494617693	1862.453332188679	46.8561021522548	901.9367269773343	1990.209407018534	1074.528885973691	977.242735000438	1827.853128937259	191.0265654734239	921.2784415187627	1791.720473914924	218.0075399731579	945.1214715294517	1864.404923466019	257.5105483007339	893.086650283719	1827.328126292507	288.5423336732819	914.8114977079321	2020.855819206006	619.6549457875666	857.638614425662	1963.248967490603	627.9342272183975	901.0444444627277	2023.441613107456	728.5361336277749	841.8487509999976	1970.958953535267	736.1258694704943	887.3250984646269	2158.36589450313	1031.256044108149	1139.18968406649	2049.515275278916	143.9736584430489	1127.457443747288	1870.505897295449	190.1083497358981	1079.765929950209	1900.228349526019	197.496344113821	1129.596442276218	1902.015178210089	224.0335084617706	1079.064033866112	2091.181024527993	1100.673319701484	1180.672470165804	2067.137739027638	81.90367281213547	1088.509724411137	2022.060873616913	104.4158417643972	1189.244152345127	1990.513690348686	1074.734339037851	1076.159080759945	2009.944336260866	266.5378676932827	1154.437969939281	1975.685847572958	294.619636551251	1121.050841812439	2048.209440133109	336.7184138575808	1171.859985197765	2014.263702216866	362.5518577070876	1138.895320419669	2228.574301364989	634.7388381688748	1196.459409157831	2165.891968546085	610.7456943887673	1172.232503756059	2186.367330271557	735.6548807399487	1209.740070081932	2124.845131010379	711.5595061414763	1191.182565059647	
2256	15.03333333333333	2159.035752992829	1016.838491407711	898.2379320927907	1685.173005954771	91.54971065785989	1000.454806237151	1716.271188734582	102.6727717071514	948.4056890676028	1706.540005236659	134.44266343137	997.9457482175778	2090.878988101595	1095.763065307157	857.8911650248901	1902.414322397583	45.28536246663582	1003.017886904308	1847.089340457128	48.26320079886239	901.8724067759672	1991.737861339667	1079.085364991106	977.1035104907263	1815.566506103709	197.0150404480563	921.0610714509504	1779.974079437045	224.0105579899487	945.6746059551837	1852.251825137125	263.4937055183697	893.0233010375601	1815.682923941359	294.4975840364053	915.5333484731362	2013.74635793344	624.6454745900547	857.9719672750732	1956.468049232563	634.3553840356278	901.504668180066	2018.930164732374	733.4801046568977	842.3461396026723	1966.679706722542	742.3541912128775	887.8700112382603	2159.620427212164	1036.765075348172	1139.210525522495	2072.383494350852	139.1392048023268	1125.443371041816	1891.133877501219	175.2300619500527	1077.770628184128	1920.311205181849	184.1179807093419	1127.70661780783	1920.661936257553	210.9323219248277	1077.284569649133	2092.419600542141	1106.97822492096	1180.811201221228	2093.695883965306	78.39507844741524	1086.197049205363	2047.203418478082	97.72219898426944	1187.023109442251	1991.968826022347	1080.195360831396	1076.1743912912	2026.10159148321	259.2032233726288	1152.852685402835	1990.447268192193	285.5444547657308	1119.460100879443	2060.468636396736	331.2322857451753	1170.619608810477	2025.19921369192	355.4598683422303	1137.665524745482	2230.82393906831	640.6616164582737	1196.11248123713	2167.902084475266	616.3482154852783	1172.955299914046	2188.541495429175	741.4700105943334	1209.517549946069	2126.870652860434	717.1793655309789	1191.760608248379	
